<svg xmlns="http://www.w3.org/2000/svg" viewBox="0 0 24 24" width="24" height="24">
  <defs>
    <linearGradient id="an5Grad" x1="0%" y1="0%" x2="100%" y2="100%">
      <stop offset="0%" stop-color="#6366F1" />
      <stop offset="100%" stop-color="#06B6D4" />
    </linearGradient>
  </defs>
  <!-- Database Cylinder Body -->
  <path fill="url(#an5Grad)" d="M12 2C6.48 2 2 3.34 2 5v14c0 1.66 4.48 3 10 3s10-1.34 10-3V5c0-1.66-4.48-3-10-3zm0 2c4.86 0 8 1.04 8 1.5S16.86 7 12 7 4 5.96 4 5.5 7.14 4 12 4zm0 4.5c4.86 0 8 1.04 8 1.5v2.5c0 .46-3.14 1.5-8 1.5s-8-1.04-8-1.5V10c0-.46 3.14-1.5 8-1.5zm0 5.5c4.86 0 8 1.04 8 1.5v2.5c0 .46-3.14 1.5-8 1.5s-8-1.04-8-1.5V15.5c0-.46 3.14-1.5 8-1.5z"/>
  <!-- AN5 Text Badge -->
  <rect x="10" y="12" width="12" height="10" rx="2" fill="#0F172A" stroke="#06B6D4" stroke-width="1"/>
  <text x="16" y="19" font-family="system-ui, -apple-system, sans-serif" font-size="7" font-weight="900" fill="#38BDF8" text-anchor="middle">A5</text>
</svg>
